<?xml version="1.0" encoding="UTF-8" standalone="no"?>
<!-- Created with Inkscape (http://www.inkscape.org/) -->

<svg
   xmlns:dc="http://purl.org/dc/elements/1.1/"
   xmlns:cc="http://creativecommons.org/ns#"
   xmlns:rdf="http://www.w3.org/1999/02/22-rdf-syntax-ns#"
   xmlns:svg="http://www.w3.org/2000/svg"
   xmlns="http://www.w3.org/2000/svg"
   xmlns:sodipodi="http://sodipodi.sourceforge.net/DTD/sodipodi-0.dtd"
   xmlns:inkscape="http://www.inkscape.org/namespaces/inkscape"
   version="1.1"
   id="svg62465"
   xml:space="preserve"
   width="800"
   height="800"
   viewBox="0 0 800 800"
   sodipodi:docname="logo-concept-11-publicdomainvectors.org.svg"
   inkscape:version="0.92.4 (5da689c313, 2019-01-14)"><metadata
     id="metadata62471"><rdf:RDF><cc:Work
         rdf:about=""><dc:format>image/svg+xml</dc:format><dc:type
           rdf:resource="http://purl.org/dc/dcmitype/StillImage" /><dc:title></dc:title></cc:Work></rdf:RDF></metadata><defs
     id="defs62469"><clipPath
       clipPathUnits="userSpaceOnUse"
       id="clipPath62481"><path
         d="M 0,600 H 600 V 0 H 0 Z"
         id="path62479"
         inkscape:connector-curvature="0" /></clipPath><linearGradient
       x1="0"
       y1="0"
       x2="1"
       y2="0"
       gradientUnits="userSpaceOnUse"
       gradientTransform="matrix(358.45917,170.83098,170.83098,-358.45917,142.20801,248.11426)"
       spreadMethod="pad"
       id="linearGradient62501"><stop
         style="stop-opacity:1;stop-color:#1aaeec"
         offset="0"
         id="stop62495" /><stop
         style="stop-opacity:1;stop-color:#4253a7"
         offset="0.488764"
         id="stop62497" /><stop
         style="stop-opacity:1;stop-color:#e70c8d"
         offset="1"
         id="stop62499" /></linearGradient></defs><sodipodi:namedview
     pagecolor="#ffffff"
     bordercolor="#666666"
     borderopacity="1"
     objecttolerance="10"
     gridtolerance="10"
     guidetolerance="10"
     inkscape:pageopacity="0"
     inkscape:pageshadow="2"
     inkscape:window-width="797"
     inkscape:window-height="480"
     id="namedview62467"
     showgrid="false"
     inkscape:zoom="0.295"
     inkscape:cx="400"
     inkscape:cy="400"
     inkscape:window-x="0"
     inkscape:window-y="0"
     inkscape:window-maximized="0"
     inkscape:current-layer="g62473" /><g
     id="g62473"
     inkscape:groupmode="layer"
     inkscape:label="logo-concept-11-publicdomainvectors.org"
     transform="matrix(1.3333333,0,0,-1.3333333,0,800)"><g
       id="g62475"><g
         id="g62477"
         clip-path="url(#clipPath62481)"><g
           id="g62483"><g
             id="g62485"><g
               id="g62491"><g
                 id="g62493"><path
                   d="m 310.923,341.786 c 0.874,-3.906 3.216,-7.213 6.003,-10.183 -3.408,-2.269 -6.41,-5.343 -10.22,-7.158 -2.09,3.626 -4.529,7.491 -6.172,11.941 3.495,0.904 6.757,3.127 10.389,5.4 m 17.198,119.591 c -0.373,-0.206 -0.733,-0.405 -1.098,-0.622 3.076,3.696 5.956,7.288 10.924,10.933 -31.727,-4.178 -82.116,-21.435 -101.182,-72.66 -11.131,-30.015 -3.81,-60.709 12.803,-82.834 9.913,-3.387 16.569,-0.426 19.828,4.483 -39.459,24.465 -0.615,111.695 38.708,127.302 -38.396,-30.756 -48.192,-80.7 -29.366,-102.868 0.064,-1.055 0.191,-2.066 0.247,-2.977 0.477,-6.996 1.594,-13.91 0.739,-20.016 -0.182,0.054 -0.366,0.097 -0.553,0.134 0.148,-0.337 0.273,-0.669 0.417,-1.001 -3.299,-18.203 -55.504,-13.113 -75.92,30.287 -3.522,7.461 -6.839,19.914 -6.415,29.715 1.951,44.223 24.726,22.335 34.046,12.777 3.103,12.766 13.531,27.666 19.448,37.244 -30.667,22.197 -50.795,37.147 -82.582,49.328 -7.397,-43.088 -4.713,-100.539 22.675,-143.64 0.222,-0.362 0.453,-0.703 0.684,-1.055 -3.832,2.76 -7.533,5.366 -11.413,10.105 6.052,-31.769 27.479,-81.184 79.885,-94.287 30.142,-7.494 59.058,3.837 77.867,22.659 2.171,11.003 -1.593,18.059 -6.932,21.234 -15.203,-43.33 -107.068,-15.884 -125.517,22.36 32.91,-35.522 84.036,-38.323 99.975,-16.137 0.987,0.233 1.927,0.501 2.796,0.69 6.579,1.55 13.029,3.87 19.066,3.651 0.002,-0.191 -0.009,-0.386 0.011,-0.578 0.297,0.17 0.571,0.35 0.856,0.528 19.552,-1.725 19.44,-59.144 -22.245,-83.6 -7.21,-4.226 -19.348,-8.58 -28.888,-8.928 -43.525,-1.497 -21.152,22.777 -11.824,33.245 -12.823,1.615 -28.316,10.35 -38.338,15.279 -21.213,-32.767 -38.393,-52.046 -51.816,-82.836 43.707,-6.007 101.912,-0.583 143.699,30.092 0.348,0.254 0.676,0.511 1.027,0.768 -2.809,-4.194 -5.464,-8.256 -10.2,-12.527 30.019,7.306 75.669,28.327 88.418,79.48 7.185,28.91 -3.035,57.642 -20.22,77.703 -11.581,3.756 -19.816,1.447 -24.648,-2.957 44.721,-18.688 18.702,-106.615 -16.202,-126.358 33.43,35.906 32.073,89.445 6.238,105.21 -0.336,0.88 -0.636,1.729 -0.911,2.483 -1.902,5.717 -3.493,11.495 -1.784,16.584 0.21,-0.026 0.424,-0.018 0.64,-0.039 -0.149,0.257 -0.26,0.524 -0.363,0.797 7.775,19.049 66.145,9.769 88.506,-33.925 3.852,-7.501 7.585,-19.835 7.507,-29.199 -0.431,-42.787 -23.592,-17.358 -33.928,-6.059 -1.669,-12.538 -9.976,-27.113 -14.631,-37.035 31.374,-27.904 49.862,-46.208 80.738,-60.625 6.365,43.011 2.603,100.221 -25.275,143.832 -0.241,0.358 -0.472,0.71 -0.7,1.074 4.035,-3.141 7.939,-6.105 11.964,-11.087 -5.396,30.17 -22.604,77.14 -72.782,95.518 -28.981,10.55 -59.394,3.995 -82.351,-11.195 -4.86,-10.395 -3.373,-18.019 0.487,-22.573 27.313,40.696 111.604,3.962 128.54,-32.374 -33.64,36.674 -86.224,43.063 -108.758,20.732 -0.968,-0.164 -1.891,-0.362 -2.717,-0.488 -6.249,-0.953 -12.345,-1.775 -17.334,0.141 0.054,0.204 0.14,0.404 0.183,0.611 -0.307,-0.107 -0.603,-0.215 -0.907,-0.316 -16.978,7.641 -3.621,61.175 41.469,79.754 7.716,3.179 20.293,5.98 29.891,5.204 43.373,-3.548 18.726,-25.176 7.324,-34.194 12.523,-3.052 26.643,-12.951 36.186,-18.57 28.203,29.005 44.344,48.38 57.499,80.159 -42.423,7.59 -98.875,6.248 -143.491,-18.536"
                   style="fill:url(#linearGradient62501);stroke:none"
                   id="path62503"
                   inkscape:connector-curvature="0" /></g></g></g></g></g></g></g></svg>